<svg width="25" height="21" viewBox="0 0 25 21" fill="none" xmlns="http://www.w3.org/2000/svg">
<path d="M19.6887 13.8322L5.48449 13.8367C5.31447 13.8367 5.17541 13.9774 5.17546 14.1493L5.17219 16.0244C5.17225 16.1962 5.3114 16.3368 5.48141 16.3368L19.6895 16.3323C19.8595 16.3322 19.9986 16.1916 19.9985 16.0197L19.9979 14.1446C19.9979 13.9727 19.8587 13.8321 19.6887 13.8322ZM19.6899 17.5824L5.47408 17.5868C5.30406 17.5869 5.165 17.7276 5.16506 17.8995L5.16178 19.7745C5.16184 19.9464 5.30099 20.087 5.47101 20.087L19.6907 20.0825C19.8607 20.0824 19.9998 19.9417 19.9997 19.7699L19.9991 17.8948C19.9991 17.7229 19.8599 17.5823 19.6899 17.5824ZM19.6875 10.082L5.49103 10.0865C5.32102 10.0865 5.18195 10.2272 5.18201 10.3991L5.17874 12.2742C5.17879 12.4461 5.31794 12.5866 5.48796 12.5866L19.6883 12.5821C19.8583 12.5821 19.9974 12.4414 19.9973 12.2695L19.9967 10.3944C19.9967 10.2225 19.8575 10.0819 19.6875 10.082ZM23.801 4.65074L13.2856 0.22806C13.0595 0.133352 12.8173 0.0846432 12.5726 0.0847204C12.3279 0.0847977 12.0857 0.13366 11.8597 0.22851L1.35093 4.65782C0.663223 4.95102 0.211344 5.63089 0.211583 6.38874L0.215809 19.7761C0.215864 19.948 0.355014 20.0886 0.525032 20.0885L3.61627 20.0875C3.78628 20.0875 3.92534 19.9468 3.92529 19.7749L3.92223 10.087C3.92202 9.39943 4.48599 8.83673 5.18152 8.83651L19.9731 8.83184C20.6686 8.83162 21.2329 9.39397 21.2331 10.0815L21.2362 19.7695C21.2363 19.9414 21.3754 20.0819 21.5454 20.0819L24.6367 20.0809C24.8067 20.0809 24.9457 19.9402 24.9457 19.7683L24.9415 6.38093C24.9412 5.62308 24.4889 4.9435 23.801 4.65074Z" fill="#283477"/>
</svg>
