<svg width="23" height="26" viewBox="0 0 23 26" fill="none" xmlns="http://www.w3.org/2000/svg">
<g clip-path="url(#clip0_4_446)">
<path d="M11.5051 7.16016C8.23988 7.16016 5.60618 9.76524 5.60618 12.9949C5.60618 16.2246 8.23988 18.8297 11.5051 18.8297C14.7702 18.8297 17.4039 16.2246 17.4039 12.9949C17.4039 9.76524 14.7702 7.16016 11.5051 7.16016ZM11.5051 16.7883C9.39502 16.7883 7.67002 15.0871 7.67002 12.9949C7.67002 10.9027 9.38988 9.20157 11.5051 9.20157C13.6202 9.20157 15.3401 10.9027 15.3401 12.9949C15.3401 15.0871 13.6151 16.7883 11.5051 16.7883ZM19.0211 6.92149C19.0211 7.67813 18.4051 8.28243 17.6452 8.28243C16.8803 8.28243 16.2693 7.67305 16.2693 6.92149C16.2693 6.16993 16.8854 5.56055 17.6452 5.56055C18.4051 5.56055 19.0211 6.16993 19.0211 6.92149ZM22.9281 8.30274C22.8408 6.47969 22.4198 4.86485 21.0696 3.53438C19.7245 2.20391 18.0919 1.78751 16.2488 1.6961C14.3493 1.58946 8.65573 1.58946 6.75618 1.6961C4.91823 1.78243 3.28564 2.19883 1.93542 3.5293C0.585197 4.85977 0.169349 6.47462 0.0769378 8.29766C-0.0308746 10.1766 -0.0308746 15.8082 0.0769378 17.6871C0.164215 19.5102 0.585197 21.125 1.93542 22.4555C3.28564 23.7859 4.9131 24.2023 6.75618 24.2938C8.65573 24.4004 14.3493 24.4004 16.2488 24.2938C18.0919 24.2074 19.7245 23.791 21.0696 22.4555C22.4147 21.125 22.8356 19.5102 22.9281 17.6871C23.0359 15.8082 23.0359 10.1816 22.9281 8.30274ZM20.474 19.7031C20.0736 20.6984 19.2984 21.4652 18.287 21.8664C16.7725 22.4606 13.1787 22.3234 11.5051 22.3234C9.8314 22.3234 6.23252 22.4555 4.72314 21.8664C3.71689 21.4703 2.94167 20.7035 2.53609 19.7031C1.93542 18.2051 2.07404 14.6504 2.07404 12.9949C2.07404 11.3395 1.94055 7.77969 2.53609 6.28672C2.93654 5.29141 3.71176 4.52462 4.72314 4.12344C6.23765 3.5293 9.8314 3.66641 11.5051 3.66641C13.1787 3.66641 16.7776 3.53438 18.287 4.12344C19.2932 4.51954 20.0685 5.28633 20.474 6.28672C21.0747 7.78477 20.9361 11.3395 20.9361 12.9949C20.9361 14.6504 21.0747 18.2102 20.474 19.7031Z" fill="white"/>
</g>
<defs>
<clipPath id="clip0_4_446">
<rect width="23" height="26" fill="white"/>
</clipPath>
</defs>
</svg>
