<svg width="22" height="27" viewBox="0 0 22 27" fill="none" xmlns="http://www.w3.org/2000/svg">
<path d="M19.7386 8.78074C19.7526 8.98655 19.7526 9.19241 19.7526 9.39823C19.7526 15.6758 15.2158 22.9091 6.92388 22.9091C4.36929 22.9091 1.99621 22.1299 0 20.7774C0.362958 20.8214 0.711909 20.8362 1.08883 20.8362C3.19667 20.8362 5.13706 20.0864 6.68656 18.8073C4.70432 18.7632 3.04314 17.396 2.4708 15.5141C2.75001 15.5582 3.02918 15.5876 3.32236 15.5876C3.72717 15.5876 4.13202 15.5288 4.5089 15.4259C2.44291 14.9848 0.893367 13.0736 0.893367 10.7655V10.7067C1.4936 11.0595 2.19163 11.2801 2.93143 11.3094C1.71695 10.4567 0.921297 9.00126 0.921297 7.35466C0.921297 6.47257 1.14461 5.66398 1.53549 4.95829C3.75505 7.83982 7.09138 9.72161 10.8325 9.92747C10.7627 9.57463 10.7208 9.20712 10.7208 8.83957C10.7208 6.22264 12.731 4.09091 15.2297 4.09091C16.5279 4.09091 17.7005 4.66428 18.5241 5.59049C19.5431 5.38467 20.5203 4.98771 21.3858 4.44376C21.0507 5.54641 20.3388 6.47262 19.4036 7.06064C20.3109 6.95778 21.1904 6.69309 22 6.32559C21.3859 7.26646 20.6181 8.10442 19.7386 8.78074Z" fill="white"/>
</svg>
