<svg width="27" height="30" viewBox="0 0 27 30" fill="none" xmlns="http://www.w3.org/2000/svg">
<g clip-path="url(#clip0_4_456)">
<path d="M22.956 7.81445C20.4308 5.35352 17.0679 4 13.494 4C6.11719 4 0.114509 9.83594 0.114509 17.0078C0.114509 19.2988 0.729241 21.5371 1.89844 23.5117L0 30.25L7.09353 28.4395C9.04621 29.4766 11.246 30.0215 13.4879 30.0215H13.494C20.8647 30.0215 27 24.1855 27 17.0137C27 13.5391 25.4813 10.2754 22.956 7.81445ZM13.494 27.8301C11.4931 27.8301 9.53438 27.3086 7.82879 26.3242L7.425 26.0898L3.2183 27.1621L4.33929 23.1719L4.07411 22.7617C2.95915 21.0391 2.37455 19.0527 2.37455 17.0078C2.37455 11.0488 7.36473 6.19727 13.5 6.19727C16.4712 6.19727 19.2616 7.32227 21.3589 9.36719C23.4562 11.4121 24.746 14.125 24.74 17.0137C24.74 22.9785 19.6232 27.8301 13.494 27.8301ZM19.5931 19.7324C19.2616 19.5684 17.6163 18.7832 17.3089 18.6777C17.0016 18.5664 16.7786 18.5137 16.5556 18.8418C16.3326 19.1699 15.6938 19.8965 15.4949 20.1191C15.302 20.3359 15.1031 20.3652 14.7717 20.2012C12.8069 19.2461 11.5172 18.4961 10.2214 16.334C9.8779 15.7598 10.565 15.8008 11.2038 14.5586C11.3123 14.3418 11.258 14.1543 11.1737 13.9902C11.0893 13.8262 10.4203 12.2266 10.1431 11.5762C9.87188 10.9434 9.59464 11.0312 9.38973 11.0195C9.19688 11.0078 8.97388 11.0078 8.75089 11.0078C8.5279 11.0078 8.16629 11.0898 7.85893 11.4121C7.55156 11.7402 6.68973 12.5254 6.68973 14.125C6.68973 15.7246 7.88906 17.2715 8.05179 17.4883C8.22054 17.7051 10.4083 20.9863 13.7652 22.3984C15.8866 23.2891 16.7183 23.3652 17.779 23.2129C18.4239 23.1191 19.7558 22.4277 20.033 21.666C20.3103 20.9043 20.3103 20.2539 20.2259 20.1191C20.1475 19.9727 19.9246 19.8906 19.5931 19.7324Z" fill="white"/>
</g>
<defs>
<clipPath id="clip0_4_456">
<rect width="27" height="30" fill="white"/>
</clipPath>
</defs>
</svg>
